<?xml version="1.0" encoding="UTF-8" standalone="no"?>
<!DOCTYPE svg PUBLIC "-//W3C//DTD SVG 1.1//EN" "http://www.w3.org/Graphics/SVG/1.1/DTD/svg11.dtd">
<svg width="100%" height="100%" viewBox="0 0 257 90" version="1.1" xmlns="http://www.w3.org/2000/svg" xmlns:xlink="http://www.w3.org/1999/xlink" xml:space="preserve" xmlns:serif="http://www.serif.com/" style="fill-rule:evenodd;clip-rule:evenodd;stroke-linejoin:round;stroke-miterlimit:2;">
    <rect x="0" y="0" width="257" height="89.78" style="fill:rgb(167,17,17);"/>
    <g>
        <g>
            <g>
                <path d="M45.41,25.917C47.77,27.276 49.619,29.156 50.96,31.557C52.3,33.956 52.97,36.698 52.97,39.777C52.97,42.858 52.3,45.607 50.96,48.027C49.62,50.448 47.77,52.328 45.41,53.668C43.049,55.008 40.41,55.678 37.49,55.678C34.73,55.678 32.23,55.028 29.99,53.728C27.749,52.428 26.01,50.619 24.77,48.298L24.77,67.077L21.77,67.077L21.77,24.117L24.65,24.117L24.65,31.497C25.889,29.098 27.639,27.228 29.9,25.888C32.159,24.548 34.69,23.878 37.49,23.878C40.409,23.876 43.049,24.557 45.41,25.917ZM43.79,51.296C45.71,50.176 47.22,48.616 48.32,46.615C49.42,44.616 49.97,42.336 49.97,39.775C49.97,37.215 49.42,34.936 48.32,32.935C47.219,30.935 45.71,29.375 43.79,28.255C41.87,27.135 39.71,26.574 37.31,26.574C34.91,26.574 32.76,27.135 30.86,28.255C28.96,29.375 27.46,30.935 26.36,32.935C25.259,34.936 24.71,37.215 24.71,39.775C24.71,42.336 25.26,44.616 26.36,46.615C27.46,48.616 28.96,50.176 30.86,51.296C32.759,52.416 34.91,52.976 37.31,52.976C39.71,52.976 41.87,52.417 43.79,51.296Z" style="fill:white;fill-rule:nonzero;"/>
                <path d="M66.109,25.706C68.149,24.487 70.629,23.877 73.549,23.877L73.549,26.816L72.829,26.756C69.349,26.756 66.628,27.846 64.669,30.026C62.709,32.207 61.729,35.237 61.729,39.116L61.729,55.436L58.729,55.436L58.729,24.116L61.609,24.116L61.609,30.956C62.569,28.676 64.069,26.926 66.109,25.706Z" style="fill:white;fill-rule:nonzero;"/>
                <path d="M82.159,53.636C79.779,52.277 77.909,50.386 76.549,47.966C75.189,45.546 74.509,42.816 74.509,39.776C74.509,36.737 75.189,34.006 76.549,31.587C77.908,29.167 79.778,27.276 82.159,25.917C84.538,24.558 87.208,23.877 90.169,23.877C93.128,23.877 95.798,24.558 98.179,25.917C100.558,27.276 102.429,29.167 103.789,31.587C105.148,34.007 105.829,36.737 105.829,39.776C105.829,42.816 105.149,45.547 103.789,47.966C102.429,50.386 100.558,52.277 98.179,53.636C95.799,54.996 93.129,55.676 90.169,55.676C87.208,55.676 84.538,54.997 82.159,53.636ZM96.619,51.296C98.518,50.176 100.018,48.616 101.119,46.615C102.219,44.616 102.769,42.336 102.769,39.775C102.769,37.215 102.219,34.936 101.119,32.935C100.018,30.935 98.518,29.375 96.619,28.255C94.719,27.135 92.569,26.574 90.169,26.574C87.769,26.574 85.618,27.135 83.719,28.255C81.819,29.375 80.319,30.935 79.219,32.935C78.118,34.936 77.569,37.215 77.569,39.775C77.569,42.336 78.118,44.616 79.219,46.615C80.319,48.616 81.819,50.176 83.719,51.296C85.618,52.416 87.769,52.976 90.169,52.976C92.569,52.976 94.719,52.417 96.619,51.296Z" style="fill:white;fill-rule:nonzero;"/>
            </g>
            <g>
                <path d="M138.26,26.576C140.601,28.736 141.771,31.957 141.771,36.236L141.771,55.436L136.31,55.436L136.31,51.236C135.351,52.716 133.98,53.846 132.201,54.627C130.42,55.406 128.31,55.797 125.87,55.797C122.309,55.797 119.46,54.937 117.32,53.217C115.18,51.497 114.11,49.238 114.11,46.437C114.11,43.637 115.13,41.387 117.17,39.687C119.21,37.988 122.45,37.137 126.89,37.137L136.01,37.137L136.01,35.996C136.01,33.517 135.29,31.616 133.851,30.297C132.41,28.977 130.289,28.317 127.49,28.317C125.61,28.317 123.77,28.628 121.97,29.247C120.17,29.868 118.65,30.698 117.41,31.737L115.01,27.418C116.65,26.098 118.61,25.088 120.89,24.388C123.17,23.689 125.59,23.338 128.15,23.338C132.55,23.336 135.92,24.417 138.26,26.576ZM132.53,49.886C134.13,48.907 135.29,47.516 136.009,45.716L136.009,41.276L127.129,41.276C122.248,41.276 119.809,42.917 119.809,46.196C119.809,47.797 120.429,49.056 121.669,49.976C122.908,50.897 124.628,51.356 126.829,51.356C129.029,51.356 130.93,50.867 132.53,49.886Z" style="fill:white;fill-rule:nonzero;"/>
                <path d="M164.81,24.776C166.769,23.816 169.15,23.337 171.949,23.337L171.949,28.917C171.629,28.877 171.189,28.856 170.631,28.856C167.51,28.856 165.059,29.786 163.279,31.646C161.499,33.506 160.609,36.157 160.609,39.596L160.609,55.436L154.849,55.436L154.849,23.636L160.37,23.636L160.37,28.976C161.368,27.136 162.849,25.736 164.81,24.776Z" style="fill:white;fill-rule:nonzero;"/>
                <path d="M197.329,53.576C196.489,54.297 195.448,54.847 194.208,55.226C192.968,55.605 191.688,55.796 190.368,55.796C187.169,55.796 184.688,54.936 182.929,53.216C181.17,51.496 180.288,49.036 180.288,45.836L180.288,28.376L174.89,28.376L174.89,23.636L180.288,23.636L180.288,16.676L186.048,16.676L186.048,23.636L195.169,23.636L195.169,28.376L186.048,28.376L186.048,45.596C186.048,47.316 186.478,48.636 187.339,49.556C188.198,50.477 189.429,50.936 191.028,50.936C192.788,50.936 194.288,50.436 195.528,49.436L197.329,53.576Z" style="fill:white;fill-rule:nonzero;"/>
                <path d="M233.448,41.456L207.647,41.456C208.006,44.257 209.237,46.507 211.336,48.206C213.438,49.907 216.047,50.757 219.166,50.757C222.967,50.757 226.027,49.477 228.348,46.917L231.528,50.637C230.087,52.317 228.298,53.597 226.157,54.477C224.016,55.357 221.628,55.797 218.987,55.797C215.628,55.797 212.647,55.107 210.048,53.727C207.446,52.347 205.437,50.417 204.019,47.937C202.597,45.458 201.888,42.657 201.888,39.537C201.888,36.458 202.577,33.678 203.958,31.197C205.337,28.718 207.237,26.787 209.657,25.407C212.077,24.027 214.807,23.338 217.848,23.338C220.887,23.338 223.596,24.027 225.977,25.407C228.356,26.787 230.217,28.718 231.557,31.197C232.897,33.677 233.567,36.517 233.567,39.718C233.567,40.157 233.528,40.736 233.448,41.456ZM210.917,30.716C209.058,32.396 207.968,34.596 207.647,37.316L228.047,37.316C227.727,34.636 226.637,32.447 224.777,30.746C222.916,29.047 220.607,28.196 217.847,28.196C215.087,28.196 212.778,29.036 210.917,30.716Z" style="fill:white;fill-rule:nonzero;"/>
            </g>
        </g>
        <g>
            <path d="M60.426,63.828L59.17,65.117L59.17,66.588L58.762,66.588L58.762,60.988L59.17,60.988L59.17,64.588L62.666,60.988L63.162,60.988L60.698,63.533L63.33,66.588L62.834,66.588L60.426,63.828Z" style="fill-rule:nonzero;"/>
            <path d="M67.565,66.011C67.173,65.601 66.977,65.001 66.977,64.212L66.977,60.987L67.385,60.987L67.385,64.196C67.385,64.884 67.542,65.397 67.857,65.739C68.171,66.081 68.628,66.251 69.225,66.251C69.817,66.251 70.27,66.081 70.585,65.739C70.899,65.397 71.057,64.884 71.057,64.196L71.057,60.987L71.465,60.987L71.465,64.212C71.465,65.001 71.268,65.601 70.873,66.011C70.478,66.423 69.926,66.628 69.217,66.628C68.508,66.628 67.958,66.423 67.565,66.011Z" style="fill-rule:nonzero;"/>
            <path d="M80.65,60.988L80.65,66.588L80.314,66.588L76.498,61.725L76.498,66.588L76.09,66.588L76.09,60.988L76.434,60.988L80.242,65.851L80.242,60.988L80.65,60.988Z" style="fill-rule:nonzero;"/>
            <path d="M85.613,66.416C85.242,66.275 84.953,66.092 84.745,65.869L84.929,65.564C85.126,65.771 85.392,65.941 85.725,66.072C86.058,66.203 86.409,66.267 86.777,66.267C87.31,66.267 87.713,66.167 87.985,65.964C88.257,65.761 88.393,65.497 88.393,65.171C88.393,64.921 88.321,64.722 88.177,64.571C88.033,64.423 87.854,64.307 87.641,64.227C87.428,64.147 87.14,64.065 86.777,63.979C86.366,63.877 86.037,63.78 85.789,63.682C85.541,63.586 85.33,63.438 85.157,63.239C84.984,63.04 84.897,62.77 84.897,62.434C84.897,62.163 84.969,61.914 85.113,61.686C85.257,61.459 85.477,61.28 85.773,61.147C86.069,61.014 86.438,60.948 86.881,60.948C87.19,60.948 87.494,60.993 87.793,61.083C88.091,61.175 88.35,61.296 88.569,61.452L88.417,61.78C88.193,61.624 87.946,61.507 87.677,61.426C87.408,61.346 87.142,61.307 86.881,61.307C86.364,61.307 85.972,61.411 85.705,61.619C85.438,61.826 85.305,62.096 85.305,62.426C85.305,62.678 85.377,62.877 85.521,63.028C85.665,63.176 85.844,63.292 86.057,63.372C86.27,63.452 86.561,63.536 86.929,63.628C87.34,63.73 87.668,63.827 87.913,63.923C88.158,64.019 88.368,64.165 88.541,64.361C88.714,64.554 88.801,64.818 88.801,65.148C88.801,65.419 88.728,65.668 88.581,65.892C88.434,66.117 88.209,66.294 87.905,66.427C87.601,66.562 87.228,66.628 86.785,66.628C86.375,66.628 85.984,66.558 85.613,66.416Z" style="fill-rule:nonzero;"/>
            <path d="M93.897,61.355L91.881,61.355L91.881,60.988L96.321,60.988L96.321,61.355L94.305,61.355L94.305,66.587L93.897,66.587L93.897,61.355Z" style="fill-rule:nonzero;"/>
            <path d="M104.609,60.988L104.609,66.588L104.201,66.588L104.201,63.924L100.457,63.924L100.457,66.588L100.049,66.588L100.049,60.988L100.457,60.988L100.457,63.564L104.201,63.564L104.201,60.988L104.609,60.988Z" style="fill-rule:nonzero;"/>
            <path d="M112.745,65.011L109.497,65.011L108.785,66.587L108.345,66.587L110.921,60.987L111.329,60.987L113.905,66.587L113.465,66.587L112.745,65.011ZM112.593,64.667L111.121,61.435L109.657,64.667L112.593,64.667Z" style="fill-rule:nonzero;"/>
            <path d="M122.201,60.988L122.201,66.588L121.865,66.588L118.049,61.725L118.049,66.588L117.641,66.588L117.641,60.988L117.985,60.988L121.793,65.851L121.793,60.988L122.201,60.988Z" style="fill-rule:nonzero;"/>
            <path d="M126.873,60.988L129.089,60.988C129.671,60.988 130.187,61.107 130.638,61.347C131.087,61.587 131.439,61.919 131.689,62.343C131.94,62.767 132.066,63.249 132.066,63.788C132.066,64.325 131.94,64.808 131.689,65.231C131.439,65.655 131.087,65.987 130.638,66.227C130.187,66.467 129.671,66.586 129.089,66.586L126.873,66.586L126.873,60.988ZM129.057,66.22C129.574,66.22 130.03,66.116 130.425,65.911C130.82,65.706 131.124,65.419 131.337,65.052C131.55,64.683 131.657,64.263 131.657,63.788C131.657,63.313 131.55,62.892 131.337,62.522C131.124,62.155 130.819,61.868 130.425,61.663C130.031,61.458 129.574,61.354 129.057,61.354L127.281,61.354L127.281,66.219L129.057,66.219L129.057,66.22Z" style="fill-rule:nonzero;"/>
            <path d="M140.065,66.219L140.065,66.587L136.201,66.587L136.201,60.987L139.945,60.987L139.945,61.354L136.608,61.354L136.608,63.563L139.592,63.563L139.592,63.922L136.608,63.922L136.608,66.219L140.065,66.219Z" style="fill-rule:nonzero;"/>
            <path d="M144.272,60.988L144.68,60.988L144.68,66.22L147.905,66.22L147.905,66.587L144.272,66.587L144.272,60.988Z" style="fill-rule:nonzero;"/>
            <path d="M163.937,60.988L162.041,66.588L161.609,66.588L159.873,61.565L158.129,66.588L157.697,66.588L155.793,60.988L156.226,60.988L157.93,66.029L159.682,60.988L160.073,60.988L161.817,66.037L163.538,60.988L163.937,60.988Z" style="fill-rule:nonzero;"/>
            <rect x="167.825" y="60.988" width="0.408" height="5.6" style="fill-rule:nonzero;"/>
            <path d="M176.769,66.219L176.769,66.587L172.906,66.587L172.906,60.987L176.65,60.987L176.65,61.354L173.314,61.354L173.314,63.563L176.298,63.563L176.298,63.922L173.314,63.922L173.314,66.219L176.769,66.219Z" style="fill-rule:nonzero;"/>
            <path d="M185.536,60.988L185.536,66.588L185.2,66.588L181.384,61.725L181.384,66.588L180.976,66.588L180.976,60.988L181.322,60.988L185.129,65.851L185.129,60.988L185.536,60.988Z" style="fill-rule:nonzero;"/>
        </g>
    </g>
</svg>
